<svg xmlns="http://www.w3.org/2000/svg" viewBox="0 0 435.84 435.83"><defs><style>.cls-1{font-size:30.13px;}.cls-1,.cls-2,.cls-3,.cls-5{fill:#231f20;}.cls-1,.cls-2{font-family:FranklinGothicATF-Medium, Franklin Gothic ATF;font-weight:500;}.cls-2{font-size:23.58px;}.cls-3,.cls-4{stroke:#231f20;stroke-miterlimit:10;}.cls-3{stroke-width:0.75px;}.cls-4{fill:none;stroke-width:8px;}</style></defs><g id="Layer_1" data-name="Layer 1"><text class="cls-1" transform="translate(140.49 55.39) rotate(-20.29) scale(1.05 1)">Y</text><text class="cls-1" transform="translate(179.4 43.12) rotate(-7.48) scale(1.05 1)">O</text><text class="cls-1" transform="translate(225.62 39.6) rotate(5.77) scale(1.05 1)">U</text><text class="cls-1" transform="translate(269.85 46.54) rotate(18.94) scale(1.05 1)">R</text><text class="cls-2" transform="translate(70.34 350.49) rotate(47.34) scale(1.08 1)">B</text><text class="cls-2" transform="translate(83.71 364.88) rotate(41.35) scale(1.08 1)">A</text><text class="cls-2" transform="translate(97.25 376.8) rotate(35.57) scale(1.08 1)">C</text><text class="cls-2" transform="translate(113.38 388.25) rotate(29.67) scale(1.08 1)">K</text><text class="cls-2" transform="translate(130.02 397.63) rotate(24.15) scale(1.08 1)">Y</text><text class="cls-2" transform="translate(144.87 404.33) rotate(19.27) scale(1.08 1)">A</text><text class="cls-2" transform="translate(162.3 410.4) rotate(13.78) scale(1.08 1)">R</text><text class="cls-2" transform="translate(181.08 414.98) rotate(8.04) scale(1.08 1)">D</text><text class="cls-2" transform="translate(201.23 417.57) rotate(4.2) scale(1.08 1)"> </text><text class="cls-2" transform="translate(207.91 418.19) rotate(0.86) scale(1.08 1)">D</text><text class="cls-2" transform="matrix(1.08, -0.09, 0.09, 1, 228.55, 418.3)">E</text><text class="cls-2" transform="translate(246.03 416.79) rotate(-10.09) scale(1.08 1)">S</text><text class="cls-2" transform="translate(264.26 413.35) rotate(-13.96) scale(1.08 1)">I</text><text class="cls-2" transform="translate(272.49 411.49) rotate(-18.14) scale(1.08 1)">G</text><text class="cls-2" transform="translate(292.05 405.03) rotate(-24.21) scale(1.08 1)">N</text><text class="cls-2" transform="translate(310.47 396.47) rotate(-28.25) scale(1.08 1)"> </text><text class="cls-2" transform="translate(315.88 393.72) rotate(-31.55) scale(1.08 1)">T</text><text class="cls-2" transform="translate(330.22 384.89) rotate(-36.79) scale(1.08 1)">E</text><text class="cls-2" transform="matrix(0.8, -0.73, 0.67, 0.74, 344.32, 374.31)">A</text><text class="cls-2" transform="translate(358.23 361.77) rotate(-49.34) scale(1.08 1)">M</text><path class="cls-3" d="M123.75,365.28a10.53,10.53,0,0,0,8.6-4.07c2.25-2.6,3.8-6.88,4.62-12.74s.83-13.42-.06-22.49A89.07,89.07,0,0,0,133,306.16a53.14,53.14,0,0,0-6.68-13.78,30.68,30.68,0,0,0-8.34-8,22.69,22.69,0,0,0-8.69-3.48l-.29-2.15a32.69,32.69,0,0,0,6.74-5.91,30.77,30.77,0,0,0,5.15-8.36,43.35,43.35,0,0,0,3.12-12.2,73.46,73.46,0,0,0-.08-15.95c-1.33-12.91-4.7-22.1-10.2-26.81s-13.71-4.56-24.2.89a252.6,252.6,0,0,0-39.95,25.71c.57,1.92,1.13,3.85,1.7,5.78a38.08,38.08,0,0,1,3.83-1.43,11.45,11.45,0,0,1,4-.63,4.1,4.1,0,0,1,3.5,1.86,16.58,16.58,0,0,1,1.78,4.73q10,41.1,20,82.21a11.35,11.35,0,0,1,4.12,4.12M80.11,225.92c.75-.47,1.65-1,2.71-1.66s1.91-1.13,2.58-1.46c4.68-2.31,8.63-1.58,11.7,2.34s5.2,10.46,6.42,19.32c1.34,9.68,1.06,17.68-.72,23.62s-5.34,9.05-10.63,9.69l-2.54.33Q84.88,252,80.11,225.92Zm37.33,120.53c-1.45,5.24-3.93,6.92-7.48,5.32a14.37,14.37,0,0,1-5.52-4.92,23.48,23.48,0,0,1-3.61-7.35q-4.71-25.78-9.41-51.58c.47-.09,1.2-.21,2.2-.36s1.8-.25,2.42-.28c5.34-.29,10,2.33,13.67,8.28s6.29,14.78,7.77,26.14C118.94,332.82,118.89,341.22,117.44,346.45Z"/><path class="cls-3" d="M221.22,193a11.12,11.12,0,0,0-3.89,1.75,14.24,14.24,0,0,0-3.34,3.53,34.25,34.25,0,0,0-4.41,8.83q-1.89,5.4-3.65,12-3.57,13.71-7.25,29.81T191,284.26a142.68,142.68,0,0,0-3,18.61q-.45,6.48.09,22.41.48,14.3,1,28.6a54,54,0,0,0,1,9,15.59,15.59,0,0,0,2.75,6.45,17.27,17.27,0,0,0,3.63,2.87,16.8,16.8,0,0,0,4.05,2.13q.13,5.6.25,11.2a219.11,219.11,0,0,1-38.24-5.27c-.23-3.51-.47-7-.7-10.55a28.41,28.41,0,0,0,3.82-.35,6.26,6.26,0,0,0,3.46-1.31,10.2,10.2,0,0,0,2.14-5.5,49.49,49.49,0,0,0,.19-8.85l-1.86-34.65q-.24-4.57-.48-8a51,51,0,0,0-.68-5.83q-.51-2.64-1.62-6.73t-2.92-10.54q-5.16-18.51-10.2-34.49t-9.75-29.34a66.82,66.82,0,0,0-4.76-10.89,28.17,28.17,0,0,0-4.57-6.14,7.86,7.86,0,0,0-4-2,12.35,12.35,0,0,0-4-.12q-.48-4.93-.94-9.87a260.83,260.83,0,0,1,47.2-11c.16,3.66.31,7.32.47,11-4.34.83-7.22,2-8.66,3.4a6.31,6.31,0,0,0-2,5.13,40.47,40.47,0,0,0,1.16,6c.72,3,1.95,7.55,3.67,13.79,1.59,5.89,3.87,14,6.78,24.53s6.31,22.94,10.13,37.38c5.8-28.56,10.31-48.91,12.75-60.39s3.74-18.56,3.69-21.15c-.06-3.26-.92-5.73-2.59-7.39s-4.35-2.65-8-2.88l-.3-11.16a273.64,273.64,0,0,1,31.38-.48Q221.23,187.41,221.22,193Z"/><path class="cls-3" d="M295.51,213.84c4.38,8.47,7.48,18.79,9.32,30.77s1.88,25.82.26,42a195.3,195.3,0,0,1-7.25,37.68A153.91,153.91,0,0,1,286.2,353c-4.45,8-9.21,14.63-14.33,19.48s-10.35,8-15.74,9a232.86,232.86,0,0,1-34.9,4.14V374.4a19.6,19.6,0,0,0,4-1,6.92,6.92,0,0,0,3.19-1.9,13.76,13.76,0,0,0,2.55-5.94,48.6,48.6,0,0,0,.8-8.82l1.68-143.44a46.59,46.59,0,0,0-.66-8.83,13.49,13.49,0,0,0-2.93-6.55,12.32,12.32,0,0,0-4.73-3.57,36.51,36.51,0,0,0-3.88-1.32q0-5.59,0-11.2a282.93,282.93,0,0,1,45,5.53c4.76,1,9.79,3.57,15,7.65S291.2,205.47,295.51,213.84Zm-20,130.08a197.74,197.74,0,0,0,5.22-25.2c1.41-9.58,2.55-20.5,3.41-32.86a302,302,0,0,0,.64-33.29A147,147,0,0,0,281.55,226c-1.75-7.58-4.19-13.76-7.31-18.45s-6.86-7.5-11.15-8.25c-1.37-.24-2.92-.43-4.67-.57s-3-.21-3.91-.25q-2.34,75-4.69,149.92a69.65,69.65,0,0,0,.2,8.79,24.79,24.79,0,0,0,1.4,6.53,9.67,9.67,0,0,0,2.63,4.1,5,5,0,0,0,4.25.88c3.7-.64,6.95-3.17,9.8-7.4S273.43,351.24,275.53,343.92Z"/><path class="cls-3" d="M345.21,337.25a3,3,0,0,1-.84-.06c-.9-.28-1.38-1.12-1.42-2.48a21.36,21.36,0,0,1,.6-5.1q10.26-47.1,20.54-94.21l2.43,1.41c1.17.69,2.54,1.59,4.1,2.72s2.86,2.13,3.88,3c1.85,1.61,3.23,5.76,4.05,11.83a75.57,75.57,0,0,1,.7,15.37l3.68,1.46q4.41-12.31,8.83-24.65a298.48,298.48,0,0,0-73.4-43.3q-2.52,23.58-5.05,47.16l4.18.89a116.53,116.53,0,0,1,8-20.39c3.43-6.83,6.29-9.85,8.48-9.51a35.33,35.33,0,0,1,4.4,1.16,36.88,36.88,0,0,1,4.43,1.72l2.53,1.21q-9,55.56-18,111.14a37.36,37.36,0,0,1-1.62,6.57,16.74,16.74,0,0,1-3.05,5.32,15.84,15.84,0,0,1-3.47,2.79l-3.87,2.48c-.37,2.78-.75,5.55-1.13,8.33"/><path class="cls-4" d="M7.71,257.74A214.1,214.1,0,0,1,4,217.92C4,99.76,99.78,4,217.92,4S431.84,99.76,431.84,217.92a214.84,214.84,0,0,1-6,50.41c-22.66,93.81-107.17,163.5-207.95,163.5C113.39,431.83,26.36,356.84,7.71,257.74Z"/><path class="cls-4" d="M48,217.43a170,170,0,0,1,339.88,3c0,1.56,0,3.12-.07,4.67A170,170,0,0,1,48,220.4C48,219.41,48,218.43,48,217.43Z"/><path class="cls-4" d="M48,217.43C90.76,185,149,165,213.15,165c69,0,131.22,23.13,174.65,60.09"/><path class="cls-5" d="M198.66,160.12a119.66,119.66,0,0,1-19.87-12.55,101.45,101.45,0,0,0-9.35-6.77,66.36,66.36,0,0,0-10.85-5.21,216.67,216.67,0,0,0-46.88-11.93,228.5,228.5,0,0,0-27.41-2.27c-3.36-.07-3.77,5.15-.4,5.23a223.45,223.45,0,0,1,47.68,6.17,216.75,216.75,0,0,1,23,6.9,69.37,69.37,0,0,1,10.62,4.69,81.54,81.54,0,0,1,9.47,6.62,132.32,132.32,0,0,0,22.23,14.07,2.64,2.64,0,0,0,3.34-1.61A2.68,2.68,0,0,0,198.66,160.12Z"/><path class="cls-5" d="M369.93,147.08c-6.33-2.63-13.1-1.07-19.43.7a88.45,88.45,0,0,1-9.9,2.35,92.82,92.82,0,0,1-10.79,1l-2.49.09c4.15-1.65,8.28-3.36,12.37-5.16s8.35-3.74,12.47-5.72,8.18-4.16,12.78-3.81c3.36.25,3.76-5,.4-5.23a19.51,19.51,0,0,0-6,.57,2.69,2.69,0,0,0-1.36-3.68c-5.79-2.45-11.61-4.9-17.53-7a53.24,53.24,0,0,0-10.06-2.63c1.52-.73,3.13-1.8,4.8-1.67s3.44,1.36,5,2a8.28,8.28,0,0,0,5.68.57A2.7,2.7,0,0,0,348,116.4a2.64,2.64,0,0,0-3.08-2.08c-1.45.45-2.66-.21-4-.84a17.22,17.22,0,0,0-4.89-1.79c-4-.57-7,2.34-10.68,3-4,.68-8.19-.75-12-2a59.82,59.82,0,0,0-11.72-2.77,42.48,42.48,0,0,0-23.53,4.38,37.86,37.86,0,0,1-4.81,2.5c-2,.7-4.17.05-6.23-.18a47.49,47.49,0,0,0-12.26.39c-8.16,1.2-16,3.84-24.24,4.83a42.12,42.12,0,0,1-12-.25c-4.32-.71-8.54-2-12.82-2.87-8.36-1.77-16.68-1.29-25.15-.72-8.13.54-16.62,1-24.38-2-4.47-1.7-8.47-4.11-13.2-5.09a133.12,133.12,0,0,0-14.79-1.72c-10.34-1-20.69-1.87-31.07-2.46a2.59,2.59,0,0,0-2.72,3,2.32,2.32,0,0,0,2.25,3.06,2.57,2.57,0,0,0,1.8-.68c8.73.52,17.44,1.25,26.14,2,4.5.41,9,.76,13.51,1.29a37.83,37.83,0,0,1,12.06,3.64A43.92,43.92,0,0,0,162.08,123a62.34,62.34,0,0,0,12.66.56c8.4-.33,16.85-1.52,25.24-.51s16.39,4.35,24.93,4.38a2.08,2.08,0,0,0,1.05,1.47c11.28,5.77,23.76,7.65,36.15,9.57,4,.62,8,1.27,11.94,2.08a2.19,2.19,0,0,0,1.88.9,2.73,2.73,0,0,0,1.14-.24c1.11.26,2.22.52,3.32.82a74.28,74.28,0,0,1,9.06,3.07c3,1.25,5.79,2.92,8.85,4,3.56,1.23,7.33,1.82,10.95,2.85l1.21.36,0,0c-.65.09-1.3.18-1.94.29-7.17,1.21-14.18,3.33-21.17,5.26q-12.17,3.34-24.26,6.88a2.68,2.68,0,0,0-2.07,3.07,2.63,2.63,0,0,0,3.07,2.07q10.4-3,20.83-5.93c6.91-1.92,13.82-4,20.83-5.48,13.7-2.94,28-.86,41.55-4.39,6.7-1.74,14.12-4.9,20.94-2.07C371.33,153.32,373,148.37,369.93,147.08Zm-121.6-16.22a84,84,0,0,1-14.72-4.18c5.37-.84,10.67-2.22,16-3.36a64.08,64.08,0,0,1,11.69-1.67,38,38,0,0,1,6.21.32,16.57,16.57,0,0,0,6.43.11,21.79,21.79,0,0,0,5-2.28,40,40,0,0,1,5.79-2.68A36.39,36.39,0,0,1,296.21,115a41.12,41.12,0,0,1,13.16,2c2.41.75,4.85,1.58,7.33,2.19-7.89,1.92-15.19,6.12-22.42,9.68-5.21,2.56-10.53,4.89-16.28,5.91a2.37,2.37,0,0,0-1.59,1C267.14,133.69,257.64,132.71,248.33,130.86Zm54.2,14a50.14,50.14,0,0,1-8.83-3.59,64.5,64.5,0,0,0-8-3.13c7.34-2.46,14.15-6.41,21.14-9.72a52.06,52.06,0,0,1,13.75-4.72c5.48-.91,10.85,0,16.09,1.71,6.51,2.13,12.86,4.86,19.16,7.54-1.38.52-2.75,1.12-4.09,1.76-4.39,2.09-8.78,4.17-13.24,6.14q-10.15,4.49-20.55,8.38C312.88,147.52,307.74,146.2,302.53,144.86Z"/></g></svg>