<svg xmlns="http://www.w3.org/2000/svg" viewBox="0 0 447.52 368.59"><defs><style>.cls-1{font-size:21.61px;}.cls-1,.cls-2,.cls-3{fill:#f7b917;}.cls-1,.cls-2{font-family:FranklinGothicATF-Medium, Franklin Gothic ATF;font-weight:500;}.cls-2{font-size:16.91px;}.cls-4{fill:none;stroke:#f7b917;stroke-miterlimit:10;stroke-width:8px;}</style></defs><g id="Layer_1" data-name="Layer 1"><text class="cls-1" transform="translate(168.22 67.74) rotate(-20.3) scale(1.05 1)">Y</text><text class="cls-1" transform="translate(196.11 58.94) rotate(-7.49) scale(1.05 1)">O</text><text class="cls-1" transform="matrix(1.05, 0.11, -0.1, 0.99, 229.23, 56.41)">U</text><text class="cls-1" transform="translate(260.95 61.38) rotate(18.92) scale(1.05 1)">R</text><text class="cls-2" transform="translate(117.94 279.39) rotate(47.33) scale(1.08 1)">B</text><text class="cls-2" transform="translate(127.57 289.74) rotate(41.31) scale(1.08 1)">A</text><text class="cls-2" transform="translate(137.3 298.3) rotate(35.53) scale(1.08 1)">C</text><text class="cls-2" transform="matrix(0.94, 0.53, -0.49, 0.87, 148.9, 306.51)">K</text><text class="cls-2" transform="matrix(0.99, 0.44, -0.41, 0.91, 160.88, 313.26)">Y</text><text class="cls-2" transform="translate(171.56 318.06) rotate(19.18) scale(1.08 1)">A</text><text class="cls-2" transform="translate(184.1 322.4) rotate(13.68) scale(1.08 1)">R</text><text class="cls-2" transform="matrix(1.07, 0.15, -0.14, 0.99, 197.6, 325.67)">D</text><text class="cls-2" transform="translate(212.06 327.5) rotate(4.09) scale(1.08 1)"> </text><text class="cls-2" transform="translate(216.88 327.92) rotate(0.86) scale(1.08 1)">D</text><text class="cls-2" transform="translate(231.71 327.99) rotate(-5.04) scale(1.08 1)">E</text><text class="cls-2" transform="translate(244.26 326.87) rotate(-10.22) scale(1.08 1)">S</text><text class="cls-2" transform="translate(257.35 324.37) rotate(-14.11) scale(1.08 1)">I</text><text class="cls-2" transform="translate(263.29 323.01) rotate(-18.3) scale(1.08 1)">G</text><text class="cls-2" transform="matrix(0.98, -0.45, 0.41, 0.91, 277.33, 318.33)">N</text><text class="cls-2" transform="matrix(0.95, -0.51, 0.48, 0.88, 290.54, 312.13)"> </text><text class="cls-2" transform="translate(294.46 310.12) rotate(-31.76) scale(1.08 1)">T</text><text class="cls-2" transform="translate(304.73 303.75) rotate(-37.01) scale(1.08 1)">E</text><text class="cls-2" transform="translate(314.82 296.11) rotate(-42.63) scale(1.08 1)">A</text><text class="cls-2" transform="translate(324.81 287.03) rotate(-49.62) scale(1.08 1)">M</text><path class="cls-3" d="M156.29,290a7.54,7.54,0,0,0,6.16-2.9c1.61-1.86,2.72-4.93,3.3-9.13a70.6,70.6,0,0,0-.05-16.16,64.35,64.35,0,0,0-2.84-14.23,37.9,37.9,0,0,0-4.79-9.9,21.75,21.75,0,0,0-6-5.77,16.37,16.37,0,0,0-6.23-2.5l-.21-1.54a23.64,23.64,0,0,0,4.83-4.24,22.37,22.37,0,0,0,3.69-6,31.09,31.09,0,0,0,2.22-8.76,52.38,52.38,0,0,0-.06-11.46c-1-9.27-3.38-15.87-7.34-19.24s-9.84-3.24-17.36.71A181.28,181.28,0,0,0,103,197.53l1.23,4.13c.78-.35,1.69-.7,2.74-1a8.32,8.32,0,0,1,2.89-.47,2.92,2.92,0,0,1,2.51,1.31,11.9,11.9,0,0,1,1.28,3.38q7.23,29.38,14.45,58.78a8.13,8.13,0,0,1,3,3m-6.13-76.48c.54-.33,1.18-.74,1.94-1.2s1.37-.81,1.85-1c3.36-1.68,6.19-1.17,8.4,1.64s3.74,7.49,4.62,13.85c1,6.95.78,12.69-.5,16.95s-3.82,6.5-7.61,7l-1.82.24Q128.32,208.79,124.89,190.09Zm26.87,86.42c-1,3.76-2.81,4.94-5.35,3.79a10.33,10.33,0,0,1-3.95-3.55,17,17,0,0,1-2.6-5.28q-3.39-18.48-6.8-37c.34-.07.86-.16,1.58-.27s1.29-.17,1.73-.19c3.83-.21,7.15,1.66,9.81,5.93s4.51,10.61,5.59,18.77C152.82,266.74,152.8,272.76,151.76,276.51Z"/><path class="cls-3" d="M226.13,166.25a7.82,7.82,0,0,0-2.79,1.25,9.88,9.88,0,0,0-2.4,2.55,24.47,24.47,0,0,0-3.16,6.34q-1.36,3.88-2.62,8.66-2.55,9.87-5.2,21.45c-1.75,7.71-3.59,16.19-5.49,25.38a103.88,103.88,0,0,0-2.18,13.39q-.31,4.65.07,16.11l.69,20.57a40,40,0,0,0,.7,6.48,11.13,11.13,0,0,0,2,4.64,12.11,12.11,0,0,0,2.6,2.06,11.69,11.69,0,0,0,2.9,1.54l.18,8.05A155.31,155.31,0,0,1,184,300.9l-.51-7.59a20.57,20.57,0,0,0,2.74-.24,4.45,4.45,0,0,0,2.47-.94,7.42,7.42,0,0,0,1.54-3.95,35.72,35.72,0,0,0,.12-6.36q-.66-12.46-1.34-24.92c-.11-2.19-.23-4.12-.34-5.78a39,39,0,0,0-.49-4.19c-.25-1.26-.63-2.88-1.17-4.83s-1.23-4.49-2.1-7.58q-3.7-13.32-7.33-24.8t-7-21.08a46.7,46.7,0,0,0-3.42-7.82,20,20,0,0,0-3.28-4.4,5.49,5.49,0,0,0-2.84-1.4,8.39,8.39,0,0,0-2.89-.08l-.69-7.1a186.27,186.27,0,0,1,33.87-8c.12,2.63.23,5.26.35,7.89-3.11.6-5.19,1.45-6.22,2.45a4.54,4.54,0,0,0-1.43,3.69,30.54,30.54,0,0,0,.83,4.29c.52,2.14,1.41,5.43,2.64,9.92,1.14,4.23,2.78,10.07,4.87,17.63s4.53,16.49,7.27,26.87c4.16-20.53,7.39-35.17,9.14-43.43s2.68-13.35,2.65-15.21a7.37,7.37,0,0,0-1.86-5.31c-1.2-1.2-3.12-1.91-5.77-2.07-.07-2.68-.14-5.35-.22-8a196.87,196.87,0,0,1,22.53-.35C226.14,160.88,226.13,163.56,226.13,166.25Z"/><path class="cls-3" d="M279.44,181.27a72.66,72.66,0,0,1,6.67,22.13c1.32,8.63,1.33,18.54.16,30.18a141.25,141.25,0,0,1-5.22,27.07,111.4,111.4,0,0,1-8.35,20.6,58.12,58.12,0,0,1-10.28,14c-3.67,3.5-7.41,5.74-11.28,6.51a164,164,0,0,1-25,3c0-2.68,0-5.37,0-8A14,14,0,0,0,229,296a5,5,0,0,0,2.29-1.36,9.85,9.85,0,0,0,1.82-4.27,34.41,34.41,0,0,0,.58-6.35q.6-51.59,1.21-103.17a33.75,33.75,0,0,0-.47-6.34,9.72,9.72,0,0,0-2.1-4.72,8.91,8.91,0,0,0-3.4-2.56,22.46,22.46,0,0,0-2.78-.95c0-2.69,0-5.37,0-8.06a200.44,200.44,0,0,1,32.26,4,26.57,26.57,0,0,1,10.77,5.51C272.9,170.64,276.35,175.26,279.44,181.27Zm-14.38,93.5a143.51,143.51,0,0,0,3.75-18.12c1-6.89,1.84-14.73,2.45-23.61a216.49,216.49,0,0,0,.48-23.94,106.51,106.51,0,0,0-2.33-19.1,40.32,40.32,0,0,0-5.24-13.27c-2.24-3.37-4.92-5.4-8-5.94-1-.17-2.09-.31-3.34-.41s-2.19-.16-2.81-.18L246.63,278a50.45,50.45,0,0,0,.14,6.32,18,18,0,0,0,1,4.69,7,7,0,0,0,1.89,3,3.56,3.56,0,0,0,3,.63c2.65-.46,5-2.28,7-5.33A45.38,45.38,0,0,0,265.06,274.77Z"/><path class="cls-3" d="M315,269.81a2.82,2.82,0,0,1-.61,0c-.64-.2-1-.8-1-1.77a15.42,15.42,0,0,1,.44-3.65q7.43-33.72,14.84-67.45l1.75,1a35,35,0,0,1,2.94,2c1.12.81,2,1.54,2.78,2.16,1.33,1.17,2.31,4.15,2.89,8.5a53.92,53.92,0,0,1,.48,11l2.63,1.06L348.49,205a213.61,213.61,0,0,0-52.65-31.34q-1.83,16.94-3.65,33.87l3,.64a83.21,83.21,0,0,1,5.72-14.63c2.47-4.89,4.52-7.06,6.09-6.81a26.3,26.3,0,0,1,3.16.84,27.48,27.48,0,0,1,3.18,1.25l1.81.88q-6.51,39.84-13,79.7a28.32,28.32,0,0,1-1.17,4.72,12.05,12.05,0,0,1-2.19,3.82,11.27,11.27,0,0,1-2.49,2c-1.19.78-2.11,1.37-2.77,1.79q-.4,3-.82,6"/><path class="cls-4" d="M345.59,189.43c0-1.11.05-2.23.05-3.35A121.88,121.88,0,0,0,101.89,184"/><path class="cls-4" d="M73,212.86a153.42,153.42,0,1,1,299.89,7.59"/><path class="cls-4" d="M101.89,184c30.68-23.29,72.43-37.62,118.45-37.62,49.52,0,94.11,16.59,125.25,43.1a121.88,121.88,0,0,1-243.72-3.35C101.87,185.37,101.88,184.66,101.89,184Z"/><path class="cls-4" d="M73,212.86a153.45,153.45,0,0,0,299.89,7.59"/><path class="cls-3" d="M210,142.84a85.53,85.53,0,0,1-14.25-9A74.08,74.08,0,0,0,189,129a48.91,48.91,0,0,0-7.79-3.74,155.93,155.93,0,0,0-33.62-8.55,161.53,161.53,0,0,0-19.65-1.63c-2.41,0-2.71,3.69-.29,3.75a161,161,0,0,1,34.2,4.42,155.7,155.7,0,0,1,16.5,5,49.26,49.26,0,0,1,7.62,3.36,57,57,0,0,1,6.79,4.75,94.15,94.15,0,0,0,15.94,10.08,1.9,1.9,0,0,0,2.4-1.15A1.94,1.94,0,0,0,210,142.84Z"/><path class="cls-3" d="M332.78,133.49c-4.54-1.88-9.4-.76-13.94.5a61.41,61.41,0,0,1-7.09,1.69,67,67,0,0,1-7.74.7l-1.79.07q4.47-1.77,8.87-3.7t8.94-4.1c2.89-1.39,5.87-3,9.17-2.74a1.88,1.88,0,0,0,.29-3.74,13.54,13.54,0,0,0-4.32.4,1.93,1.93,0,0,0-1-2.64c-4.15-1.76-8.32-3.51-12.57-5a38.85,38.85,0,0,0-7.21-1.88c1.08-.52,2.24-1.29,3.44-1.2s2.47,1,3.6,1.46a5.94,5.94,0,0,0,4.08.41,1.93,1.93,0,0,0,1.48-2.2,1.89,1.89,0,0,0-2.2-1.49,3.79,3.79,0,0,1-2.85-.6,12,12,0,0,0-3.51-1.28c-2.85-.42-5,1.67-7.66,2.12-2.89.49-5.87-.54-8.59-1.39a42.69,42.69,0,0,0-8.41-2A30.39,30.39,0,0,0,266.92,110a29.06,29.06,0,0,1-3.46,1.79c-1.45.5-3,0-4.46-.13a34.13,34.13,0,0,0-8.8.28c-5.85.86-11.5,2.75-17.38,3.46a30.16,30.16,0,0,1-8.59-.17c-3.09-.51-6.12-1.41-9.18-2.06-6-1.27-12-.93-18-.52-5.83.39-11.93.73-17.49-1.39-3.2-1.23-6.07-3-9.47-3.66a96.34,96.34,0,0,0-10.6-1.23c-7.42-.69-14.84-1.34-22.28-1.77a1.87,1.87,0,0,0-2,2.13,1.67,1.67,0,0,0,1.62,2.19,1.83,1.83,0,0,0,1.29-.49c6.26.38,12.51.9,18.75,1.47,3.22.3,6.46.55,9.68.93a27.07,27.07,0,0,1,8.65,2.61,32,32,0,0,0,8.52,2.78,45.2,45.2,0,0,0,9.08.4c6-.24,12.08-1.09,18.1-.37s11.75,3.13,17.87,3.14a1.49,1.49,0,0,0,.76,1.06c8.09,4.14,17,5.49,25.93,6.86,2.86.45,5.72.91,8.56,1.49a1.57,1.57,0,0,0,1.35.65,2.09,2.09,0,0,0,.81-.17c.8.19,1.59.37,2.38.58a52.9,52.9,0,0,1,6.5,2.21c2.14.89,4.15,2.09,6.35,2.85,2.55.88,5.25,1.31,7.85,2l.87.26,0,0c-.47.07-.93.13-1.39.21a156,156,0,0,0-15.19,3.77q-8.72,2.4-17.39,4.93a1.93,1.93,0,0,0-1.49,2.2,1.9,1.9,0,0,0,2.21,1.49q7.45-2.17,14.93-4.25c5-1.38,9.91-2.85,14.94-3.93,9.83-2.11,20-.62,29.8-3.15,4.8-1.25,10.13-3.51,15-1.48C333.78,138,335,134.42,332.78,133.49Zm-87.21-11.63a59.83,59.83,0,0,1-10.55-3c3.85-.6,7.64-1.59,11.46-2.41a46.5,46.5,0,0,1,8.38-1.2,27.72,27.72,0,0,1,4.46.23,11.73,11.73,0,0,0,4.61.08,15.26,15.26,0,0,0,3.61-1.63A28,28,0,0,1,271.7,112a26.13,26.13,0,0,1,8.21-1.55,29.71,29.71,0,0,1,9.44,1.43c1.72.53,3.48,1.13,5.25,1.57-5.66,1.37-10.89,4.38-16.07,6.93a43.75,43.75,0,0,1-11.68,4.24,1.73,1.73,0,0,0-1.14.7C259.06,123.89,252.25,123.19,245.57,121.86Zm38.87,10a36.19,36.19,0,0,1-6.33-2.57,47.25,47.25,0,0,0-5.75-2.25c5.27-1.76,10.15-4.6,15.17-7a37.57,37.57,0,0,1,9.85-3.39A24.11,24.11,0,0,1,308.92,118c4.67,1.53,9.22,3.49,13.75,5.41-1,.38-2,.81-2.94,1.26-3.15,1.5-6.3,3-9.49,4.4q-7.28,3.22-14.74,6C291.87,133.81,288.18,132.86,284.44,131.9Z"/></g></svg>