<svg xmlns="http://www.w3.org/2000/svg" viewBox="0 0 447.52 368.59"><defs><style>.cls-1{font-size:21.1px;}.cls-1,.cls-2,.cls-3{fill:#4ca0bc;}.cls-1,.cls-2{font-family:FranklinGothicATF-Medium, Franklin Gothic ATF;font-weight:500;}.cls-2{font-size:16.51px;}.cls-4{fill:none;stroke:#4ca0bc;stroke-miterlimit:10;stroke-width:8px;}</style></defs><g id="Layer_1" data-name="Layer 1"><text class="cls-1" transform="matrix(0.99, -0.36, 0.35, 0.94, 169.56, 70.5)">Y</text><text class="cls-1" transform="matrix(1.04, -0.14, 0.13, 0.99, 196.81, 61.9)">O</text><text class="cls-1" transform="translate(229.18 59.44) rotate(5.78) scale(1.05 1)">U</text><text class="cls-1" transform="matrix(0.99, 0.34, -0.32, 0.95, 260.14, 64.31)">R</text><text class="cls-2" transform="translate(120.43 277.12) rotate(47.34) scale(1.08 1)">B</text><text class="cls-2" transform="translate(129.81 287.21) rotate(41.33) scale(1.08 1)">A</text><text class="cls-2" transform="translate(139.28 295.54) rotate(35.57) scale(1.08 1)">C</text><text class="cls-2" transform="translate(150.59 303.57) rotate(29.66) scale(1.08 1)">K</text><text class="cls-2" transform="translate(162.24 310.14) rotate(24.13) scale(1.08 1)">Y</text><text class="cls-2" transform="translate(172.61 314.82) rotate(19.27) scale(1.08 1)">A</text><text class="cls-2" transform="matrix(1.05, 0.26, -0.24, 0.97, 184.82, 319.06)">R</text><text class="cls-2" transform="matrix(1.07, 0.15, -0.14, 0.99, 197.97, 322.27)">D</text><text class="cls-2" transform="translate(212.07 324.09) rotate(4.2) scale(1.08 1)"> </text><text class="cls-2" transform="translate(216.76 324.52) rotate(0.86) scale(1.08 1)">D</text><text class="cls-2" transform="translate(231.21 324.6) rotate(-4.92) scale(1.08 1)">E</text><text class="cls-2" transform="translate(243.45 323.54) rotate(-10.08) scale(1.08 1)">S</text><text class="cls-2" transform="translate(256.21 321.13) rotate(-13.96) scale(1.08 1)">I</text><text class="cls-2" transform="matrix(1.03, -0.34, 0.31, 0.95, 261.97, 319.83)">G</text><text class="cls-2" transform="matrix(0.99, -0.44, 0.41, 0.91, 275.67, 315.31)">N</text><text class="cls-2" transform="translate(288.55 309.32) rotate(-28.25) scale(1.08 1)"> </text><text class="cls-2" transform="translate(292.36 307.38) rotate(-31.55) scale(1.08 1)">T</text><text class="cls-2" transform="matrix(0.87, -0.65, 0.6, 0.8, 302.37, 301.21)">E</text><text class="cls-2" transform="translate(312.26 293.8) rotate(-42.4) scale(1.08 1)">A</text><text class="cls-2" transform="matrix(0.7, -0.82, 0.76, 0.65, 322, 285.02)">M</text><path class="cls-3" d="M157.89,287.53a7.33,7.33,0,0,0,6-2.83c1.57-1.81,2.65-4.8,3.23-8.91a69.67,69.67,0,0,0-.06-15.78,62.93,62.93,0,0,0-2.76-13.89,37.4,37.4,0,0,0-4.69-9.67,21.4,21.4,0,0,0-5.84-5.63,16.24,16.24,0,0,0-6.08-2.44l-.21-1.5a22.87,22.87,0,0,0,4.72-4.15,21.92,21.92,0,0,0,3.6-5.86,30.44,30.44,0,0,0,2.17-8.56,51.08,51.08,0,0,0-.06-11.18c-.94-9-3.31-15.49-7.17-18.78s-9.6-3.17-16.95.68a177.45,177.45,0,0,0-28,18.19l1.2,4c.76-.33,1.65-.68,2.68-1a8.35,8.35,0,0,1,2.81-.46,2.87,2.87,0,0,1,2.46,1.29,11.68,11.68,0,0,1,1.25,3.29l14.1,57.39a8.08,8.08,0,0,1,2.89,2.89m-6-74.67,1.89-1.17c.74-.45,1.34-.79,1.81-1,3.28-1.63,6-1.13,8.2,1.61s3.65,7.31,4.51,13.52c1,6.78.76,12.39-.49,16.55s-3.73,6.34-7.43,6.8l-1.77.23Zm26.24,84.37c-1,3.67-2.75,4.83-5.23,3.7a10.14,10.14,0,0,1-3.86-3.46,16.55,16.55,0,0,1-2.53-5.15q-3.32-18-6.64-36.08c.33-.07.84-.15,1.54-.26s1.26-.17,1.69-.19c3.74-.2,7,1.63,9.58,5.79S152.43,249,153.48,257C154.51,264.79,154.48,270.67,153.47,274.32Z"/><path class="cls-3" d="M226.08,166.68a7.66,7.66,0,0,0-2.73,1.22,10,10,0,0,0-2.34,2.48,24,24,0,0,0-3.09,6.2c-.88,2.53-1.74,5.35-2.56,8.46q-2.49,9.63-5.07,20.93t-5.37,24.79a100.06,100.06,0,0,0-2.12,13.06q-.31,4.56.07,15.74.33,10,.67,20.08a38.48,38.48,0,0,0,.68,6.33,11.17,11.17,0,0,0,1.93,4.53,12.5,12.5,0,0,0,2.55,2,11.79,11.79,0,0,0,2.83,1.5c.06,2.62.11,5.24.17,7.86A151.81,151.81,0,0,1,185,298.14c-.17-2.47-.33-4.94-.5-7.41a19.35,19.35,0,0,0,2.67-.24,4.38,4.38,0,0,0,2.42-.91,7.23,7.23,0,0,0,1.5-3.86,35.82,35.82,0,0,0,.13-6.21q-.66-12.17-1.31-24.33c-.12-2.14-.23-4-.34-5.64a37.39,37.39,0,0,0-.48-4.09c-.24-1.23-.62-2.81-1.14-4.72s-1.2-4.38-2-7.4q-3.62-13-7.15-24.21t-6.84-20.58a45.57,45.57,0,0,0-3.34-7.63,19.9,19.9,0,0,0-3.2-4.31,5.49,5.49,0,0,0-2.77-1.36,8.55,8.55,0,0,0-2.83-.08q-.33-3.47-.67-6.93a181,181,0,0,1,33.07-7.8c.11,2.57.22,5.13.34,7.7-3,.59-5.06,1.42-6.07,2.39a4.43,4.43,0,0,0-1.4,3.61,30,30,0,0,0,.81,4.19c.5,2.08,1.37,5.29,2.58,9.68,1.11,4.13,2.71,9.84,4.75,17.21s4.42,16.1,7.1,26.24c4.06-20,7.21-34.34,8.93-42.4s2.61-13,2.58-14.85a7.21,7.21,0,0,0-1.82-5.19c-1.17-1.17-3-1.86-5.62-2q-.12-3.92-.22-7.84a189.76,189.76,0,0,1,22-.34Z"/><path class="cls-3" d="M278.12,181.34A70.62,70.62,0,0,1,284.63,203c1.29,8.42,1.3,18.1.16,29.46a136.72,136.72,0,0,1-5.1,26.43A108.34,108.34,0,0,1,271.54,279a57.3,57.3,0,0,1-10,13.69c-3.59,3.41-7.24,5.6-11,6.34a158.82,158.82,0,0,1-24.41,2.93v-7.86a14.61,14.61,0,0,0,2.78-.73,4.84,4.84,0,0,0,2.23-1.33,9.61,9.61,0,0,0,1.78-4.18,32.81,32.81,0,0,0,.56-6.19q.6-50.35,1.19-100.73a33.05,33.05,0,0,0-.46-6.19,9.47,9.47,0,0,0-2.06-4.6,8.53,8.53,0,0,0-3.31-2.51,24.11,24.11,0,0,0-2.71-.92v-7.87a196.5,196.5,0,0,1,31.5,3.9,26,26,0,0,1,10.51,5.38C271.74,171,275.1,175.47,278.12,181.34Zm-14,91.28a138,138,0,0,0,3.66-17.68c1-6.73,1.8-14.39,2.4-23.06a210.63,210.63,0,0,0,.46-23.36,103.14,103.14,0,0,0-2.27-18.66,39.26,39.26,0,0,0-5.12-13c-2.18-3.29-4.8-5.27-7.8-5.8a32.51,32.51,0,0,0-3.27-.4c-1.22-.1-2.14-.15-2.74-.18q-1.67,52.64-3.31,105.26a50.15,50.15,0,0,0,.13,6.17,17.87,17.87,0,0,0,1,4.59,6.74,6.74,0,0,0,1.85,2.87,3.46,3.46,0,0,0,3,.61c2.59-.45,4.87-2.23,6.87-5.2A44.42,44.42,0,0,0,264.08,272.62Z"/><path class="cls-3" d="M312.81,267.79a2.07,2.07,0,0,1-.59,0c-.63-.19-1-.77-1-1.72a14.69,14.69,0,0,1,.43-3.57l14.49-65.85c.57.33,1.14.66,1.7,1a34.07,34.07,0,0,1,2.87,1.92c1.1.79,2,1.5,2.72,2.11,1.3,1.14,2.26,4.05,2.82,8.3a52.66,52.66,0,0,1,.47,10.72l2.57,1q3.12-8.58,6.23-17.15a208.46,208.46,0,0,0-51.4-30.6q-1.78,16.53-3.56,33.07l2.93.63a82.13,82.13,0,0,1,5.58-14.29c2.41-4.78,4.42-6.89,5.95-6.65a30.28,30.28,0,0,1,6.19,2l1.77.86q-6.36,38.91-12.71,77.82a26.89,26.89,0,0,1-1.14,4.6,11.68,11.68,0,0,1-2.14,3.73,10.9,10.9,0,0,1-2.43,2l-2.7,1.75c-.27,1.94-.53,3.89-.8,5.83"/><path class="cls-4" d="M342.71,189.3c0-1.08,0-2.17,0-3.26a119,119,0,0,0-238-2.08"/><path class="cls-4" d="M76.57,212.18a149.78,149.78,0,1,1,292.79,7.41"/><path class="cls-4" d="M104.78,184c29.95-22.74,70.71-36.73,115.64-36.73,48.35,0,91.88,16.2,122.29,42.07A119,119,0,0,1,104.76,186C104.76,185.34,104.77,184.65,104.78,184Z"/><path class="cls-4" d="M76.57,212.18a149.82,149.82,0,0,0,292.79,7.41"/><path class="cls-3" d="M210.27,143.83a84.41,84.41,0,0,1-13.9-8.79,72.16,72.16,0,0,0-6.55-4.74,46.56,46.56,0,0,0-7.6-3.65,151.6,151.6,0,0,0-32.82-8.35,158.14,158.14,0,0,0-19.19-1.59c-2.36,0-2.65,3.61-.28,3.66a156.5,156.5,0,0,1,33.38,4.32,153.14,153.14,0,0,1,16.12,4.83,48.8,48.8,0,0,1,7.43,3.29,56.32,56.32,0,0,1,6.64,4.63,92,92,0,0,0,15.56,9.85,1.84,1.84,0,0,0,2.34-1.13A1.87,1.87,0,0,0,210.27,143.83Z"/><path class="cls-3" d="M330.2,134.69c-4.43-1.84-9.18-.74-13.61.49a60.71,60.71,0,0,1-6.93,1.65,65.78,65.78,0,0,1-7.55.69l-1.75.06q4.36-1.72,8.67-3.61t8.73-4c2.81-1.36,5.72-2.92,8.94-2.67,2.36.17,2.64-3.49.28-3.66a13.46,13.46,0,0,0-4.21.39,1.88,1.88,0,0,0-1-2.57c-4.05-1.72-8.12-3.43-12.27-4.91a37.05,37.05,0,0,0-7-1.84c1.06-.51,2.19-1.27,3.36-1.17s2.41.95,3.52,1.42a5.75,5.75,0,0,0,4,.4,1.88,1.88,0,0,0,1.45-2.15,1.84,1.84,0,0,0-2.15-1.45,3.67,3.67,0,0,1-2.78-.59,12.08,12.08,0,0,0-3.43-1.25c-2.78-.4-4.87,1.63-7.47,2.07-2.83.48-5.74-.52-8.39-1.36a41.54,41.54,0,0,0-8.21-1.94,29.74,29.74,0,0,0-16.48,3.07,26.91,26.91,0,0,1-3.37,1.75c-1.42.49-2.91,0-4.35-.13a33.4,33.4,0,0,0-8.59.27c-5.71.84-11.23,2.69-17,3.39a29.48,29.48,0,0,1-8.39-.18c-3-.5-6-1.37-9-2-5.86-1.24-11.68-.91-17.61-.51-5.69.38-11.64.7-17.07-1.37-3.13-1.19-5.93-2.87-9.25-3.56A91.86,91.86,0,0,0,161,108.21c-7.24-.67-14.49-1.3-21.75-1.72a1.82,1.82,0,0,0-1.91,2.08,1.63,1.63,0,0,0,1.58,2.14,1.8,1.8,0,0,0,1.26-.48c6.11.37,12.21.88,18.3,1.44,3.15.28,6.31.53,9.46.9a26.35,26.35,0,0,1,8.44,2.55,31,31,0,0,0,8.32,2.71,43.72,43.72,0,0,0,8.86.39c5.88-.23,11.79-1.07,17.67-.36s11.48,3,17.45,3.07a1.51,1.51,0,0,0,.74,1c7.9,4,16.64,5.36,25.32,6.7,2.79.43,5.58.89,8.35,1.46a1.55,1.55,0,0,0,1.32.63,1.88,1.88,0,0,0,.8-.17c.77.18,1.55.36,2.32.57a52,52,0,0,1,6.34,2.15c2.09.88,4.06,2,6.21,2.79,2.49.86,5.13,1.27,7.66,2l.85.25s0,0,0,0c-.46.07-.91.13-1.36.21a147.78,147.78,0,0,0-14.82,3.68q-8.52,2.34-17,4.81a1.9,1.9,0,0,0-1.45,2.16,1.86,1.86,0,0,0,2.15,1.45q7.29-2.13,14.59-4.16c4.83-1.34,9.67-2.78,14.58-3.83,9.6-2.06,19.58-.6,29.09-3.08,4.69-1.22,9.89-3.42,14.67-1.44C331.17,139.07,332.37,135.6,330.2,134.69Zm-85.14-11.35a59.69,59.69,0,0,1-10.31-2.93c3.76-.58,7.47-1.55,11.19-2.35a44.42,44.42,0,0,1,8.19-1.17,26.37,26.37,0,0,1,4.35.22,11.56,11.56,0,0,0,4.5.08,14.4,14.4,0,0,0,3.53-1.6,28.56,28.56,0,0,1,4.05-1.87,25.26,25.26,0,0,1,8-1.51,28.79,28.79,0,0,1,9.21,1.39c1.69.52,3.4,1.1,5.14,1.54-5.53,1.33-10.64,4.27-15.7,6.77a43,43,0,0,1-11.4,4.14,1.64,1.64,0,0,0-1.11.67C258.22,125.32,251.57,124.63,245.06,123.34Zm37.95,9.8a34.3,34.3,0,0,1-6.19-2.51,47.28,47.28,0,0,0-5.61-2.2c5.14-1.71,9.91-4.48,14.81-6.8a36.42,36.42,0,0,1,9.62-3.31,23.64,23.64,0,0,1,11.27,1.2c4.55,1.49,9,3.41,13.41,5.28-1,.37-1.92.79-2.86,1.24-3.08,1.46-6.15,2.92-9.27,4.29q-7.11,3.15-14.39,5.87C290.26,135,286.66,134.08,283,133.14Z"/></g></svg>