<svg xmlns="http://www.w3.org/2000/svg" viewBox="0 0 951.95 282.91"><defs><style>.cls-1,.cls-2{fill:#231f20;}.cls-1{stroke:#231f20;stroke-miterlimit:10;stroke-width:0.75px;}.cls-2{font-size:41.99px;font-family:FranklinGothicATF-Medium, Franklin Gothic ATF;font-weight:500;letter-spacing:-0.02em;}.cls-3{letter-spacing:-0.03em;}.cls-4{letter-spacing:-0.01em;}.cls-5{letter-spacing:-0.07em;}.cls-6{letter-spacing:-0.01em;}.cls-7{letter-spacing:-0.04em;}</style></defs><g id="Layer_1" data-name="Layer 1"><path class="cls-1" d="M307.69,124.62a37.2,37.2,0,0,1,11.39,11.56q4.53,7.14,4.53,17.33a33.66,33.66,0,0,1-4.75,18.07,39.85,39.85,0,0,1-12.38,12.61,58.24,58.24,0,0,1-16.74,7.36,73.76,73.76,0,0,1-19.29,2.52H196.19v-7.46q2.66-.21,7.74-.9a30.44,30.44,0,0,0,7.29-1.62,9.87,9.87,0,0,0,4.86-3.94,12.53,12.53,0,0,0,1.44-6.36V66.62a14.73,14.73,0,0,0-1.27-6.3,9.44,9.44,0,0,0-5-4.41,32,32,0,0,0-7.4-2.42A56.57,56.57,0,0,0,197,52.44V45h72.38a79.88,79.88,0,0,1,16.08,1.57,49.13,49.13,0,0,1,14.64,5.57,31.13,31.13,0,0,1,10.72,10A27.07,27.07,0,0,1,315,77.44a31.72,31.72,0,0,1-3,14A30.72,30.72,0,0,1,303.61,102,49.24,49.24,0,0,1,292,109.12a70.75,70.75,0,0,1-14.2,4.47v.94a86.73,86.73,0,0,1,15.08,3.21A53.1,53.1,0,0,1,307.69,124.62ZM281,102.12a25.7,25.7,0,0,0,5.68-9.9,45.08,45.08,0,0,0,1.6-12.73q0-12.31-7.06-19.32t-22.27-7c-2.35,0-5.31.06-8.88.16l-9,.26V111h14a48.09,48.09,0,0,0,15.49-2.21A24.19,24.19,0,0,0,281,102.12Zm15.34,47.61q0-13.24-9.34-21.75t-26.68-8.51q-7.08,0-11.94.16t-7.29.26v52.53a10.93,10.93,0,0,0,5.63,10q5.64,3.36,15.7,3.36,16.46,0,25.19-9.14T296.31,149.73Z"/><path class="cls-1" d="M476.61,52.44a27.15,27.15,0,0,0-6,1.42,22.41,22.41,0,0,0-5.86,2.57,41.74,41.74,0,0,0-5.85,3.89,62.23,62.23,0,0,0-6,7.14Q444.34,79,437.05,90.89t-18.24,30.16a55.45,55.45,0,0,0-5.41,10.82q-1.33,4.09-1.33,11.87v28.47a13,13,0,0,0,1.6,6.57,11.16,11.16,0,0,0,5.47,4.47,66.81,66.81,0,0,0,8.29,2,59.16,59.16,0,0,0,9.62,1.32v7.46H363.67v-7.46c2.06-.14,5.16-.4,9.28-.79a36,36,0,0,0,8.62-1.52A10.14,10.14,0,0,0,387,180a13.81,13.81,0,0,0,1.49-6.73V137c0-1.12-.71-3.17-2.15-6.15s-3.15-6.29-5.14-9.93q-6.63-12.18-14.7-26.37t-14-24.27a59,59,0,0,0-6.47-9,32.06,32.06,0,0,0-6.46-5.35,21.63,21.63,0,0,0-6.36-2.42,44.49,44.49,0,0,0-6.68-1.05V45h66.92v7.46q-11.28.21-15.92,1.46t-4.64,3.56a6.88,6.88,0,0,0,.66,2.2c.45,1.05,1.07,2.38,1.88,4q1.44,2.73,3.42,6.25t3.75,6.77q5.17,9.36,10.58,18.65t14.12,24.21Q424.65,93,433.75,78.1t9.12-17.8A4.69,4.69,0,0,0,441,56.42a14,14,0,0,0-5-2.3,37.27,37.27,0,0,0-7-1.1q-3.75-.27-7-.58V45h54.52Z"/><path class="cls-1" d="M629.39,120.42q0,19-7.52,33a68.33,68.33,0,0,1-19.56,22.9A86.4,86.4,0,0,1,575,189.65a111,111,0,0,1-31.28,4.42h-65v-7.46a76.91,76.91,0,0,0,8.35-.58,27.49,27.49,0,0,0,6.79-1.31,9.29,9.29,0,0,0,4.81-4.05,13,13,0,0,0,1.49-6.46V66.62a15.48,15.48,0,0,0-1.27-6.41,9.32,9.32,0,0,0-5-4.52,31.18,31.18,0,0,0-7.4-2.31,64.32,64.32,0,0,0-6.85-.94V45h68.51A95.45,95.45,0,0,1,576,49.13a84.94,84.94,0,0,1,23.87,11.19A65.34,65.34,0,0,1,621.54,84.8Q629.39,99.92,629.39,120.42Zm-27.08-.06a82.52,82.52,0,0,0-4.2-27.13,61.72,61.72,0,0,0-12.26-21.16,53.94,53.94,0,0,0-18.73-13.54,60.2,60.2,0,0,0-24.7-4.94c-3,0-6.43.06-10.22.16s-6.62.19-8.46.26V168.55q0,9.55,5.86,13.23t18,3.67q14,0,24.53-4.72a43.91,43.91,0,0,0,17-13.12,57.39,57.39,0,0,0,10-20.42A102.86,102.86,0,0,0,602.31,120.36Z"/><path class="cls-1" d="M774,85.43h-7.62a48.27,48.27,0,0,0-3.61-9A78.92,78.92,0,0,0,757,66.62a50.32,50.32,0,0,0-7.25-8.46q-3.94-3.61-7.59-4.15-3.43-.42-8.64-.63t-9.64-.21h-6.42V172.42a13.16,13.16,0,0,0,1.55,6.36,10.13,10.13,0,0,0,5.41,4.47,68.81,68.81,0,0,0,8.35,2,64.33,64.33,0,0,0,9.89,1.37v7.46h-74v-7.46q3.09-.21,9.44-.84a38,38,0,0,0,8.79-1.58,10.64,10.64,0,0,0,5.36-3.94,12.25,12.25,0,0,0,1.71-6.88V53.17h-6.41c-2.28,0-5.12.06-8.51.16s-6.63.33-9.72.68c-2.43.28-5,1.67-7.57,4.15a55.93,55.93,0,0,0-7.24,8.46,70.83,70.83,0,0,0-5.86,10A58.82,58.82,0,0,0,645,85.43h-7.74V45H774Z"/><text class="cls-2" transform="translate(194.71 238.81) scale(1.05 1)">B<tspan class="cls-3" x="30.19" y="0">A</tspan><tspan class="cls-4" x="57.77" y="0">CK</tspan><tspan class="cls-5" x="117.64" y="0">Y</tspan><tspan class="cls-6" x="142.62" y="0">ARD DESIGN</tspan><tspan class="cls-7" x="406.04" y="0"> </tspan><tspan class="cls-6" x="414.64" y="0">TEAM</tspan></text></g></svg>